{"title":"Stolichani v poveche - Season 5 - Episode 5","uid":8338196,"size":907879936,"categoryP":"video","categoryS":"tv_shows","magnet":"?xt=urn:btih:06ec2a1a6bc6a73d64cb5b609c19bf00400a9d3e&amp;dn=Stolichani+v+poveche+-+Season+5+-+Episode+5&amp;tr=udp%3A%2F%2Ftracker.openbittorrent.com%3A80&amp;tr=udp%3A%2F%2Fopen.demonii.com%3A1337&amp;tr=udp%3A%2F%2Ftracker.coppersurfer.tk%3A6969&amp;tr=udp%3A%2F%2Fexodus.desync.com%3A6969","seeders":3,"leechers":0,"uploader":null,"files":1,"time":1365026068,"description":"Stolichani v poveche.S05E05.WEB.Rip.AVI.FREEPLAY.avi\n   \nGeneral\n      \nComplete name : Stolichani v poveche.S05E05.WEB.Rip.AVI.FREEPLAY.avi\n      Format : AVI\n      Format/Info : Audio Video Interleave\n      File size : 866 MiB\n      Duration : 45mn 48s\n      Overall bit rate : 2 642 Kbps\n   Video #0\n      ID : 0\n      Format : MPEG-4 Visual\n      Format profile : Simple@L3\n      Format settings, BVOP : No\n      Format settings, QPel : No\n      Format settings, GMC : No warppoints\n      Format settings, Matrix : Default (H.263)\n      Codec ID : XVID\n      Codec ID/Hint : XviD\n      Duration : 45mn 48s\n      Bit rate : 2 500 Kbps\n      Width : 1 280 pixels\n      Height : 720 pixels\n      Display aspect ratio : 16:9\n      Frame rate : 30.000 fps\n      Resolution : 24 bits\n      Colorimetry : 4:2:0\n      Scan type : Progressive\n      Bits/(Pixel*Frame) : 0.090\n      Stream size : 819 MiB (95%)\n      Writing library : XviD 1.2.1 (UTC 2008-12-04)\n   Audio #1\n      ID : 1\n      Format : MPEG Audio\n      Format version : Version 1\n      Format profile : Layer 3\n      Codec ID : 55\n      Codec ID/Hint : MP3\n      Duration : 45mn 48s\n      Bit rate mode : Constant\n      Bit rate : 128 Kbps\n      Channel(s) : 2 channels\n      Sampling rate : 48.0 KHz\n      Resolution : 16 bits\n      Stream size : 41.9 MiB (5%)\n      Alignment : Aligned on interleaves\n      Interleave, duration : 24 ms (0.72 video frame)\n      Writing library : LAME3.98","torrent":{"xt":"urn:btih:06ec2a1a6bc6a73d64cb5b609c19bf00400a9d3e","amp;dn":"Stolichani+v+poveche+-+Season+5+-+Episode+5","amp;tr":["udp%3A%2F%2Ftracker.openbittorrent.com%3A80","udp%3A%2F%2Fopen.demonii.com%3A1337","udp%3A%2F%2Ftracker.coppersurfer.tk%3A6969","udp%3A%2F%2Fexodus.desync.com%3A6969"],"infoHash":"06ec2a1a6bc6a73d64cb5b609c19bf00400a9d3e","infoHashBuffer":{"type":"Buffer","data":[6,236,42,26,107,198,167,61,100,203,91,96,156,25,191,0,64,10,157,62]},"announce":[],"urlList":[]}}